# xmcd
#
# Track frame offsets:
# 150
# 10502
# 16395
# 21207
# 24515
# 46300
# 49690
# 56487
# 60075
# 65567
# 72490
# 75525
# 81100
# 87867
# 90707
# 95542
# 101475
# 106930
# 110362
# 120127
# 126075
# 130887
# 138532
#
# Disc length: 2079 seconds
#
# Revision: 1
# Processed by: cddbd v1.5.1PL2 Copyright (c) Steve Scherf et al.
# Submitted via: CedeCatalogueitor 2.6.0.6 http://personales.ya.com/cdcatalogueitor
#
DISCID=1d081d17
DTITLE=Various Artist - COLD FEET - Tom Bahler
DYEAR=1989
DGENRE=
TTITLE0=Afternoon Sound-up (Main Title)
TTITLE1=Shoot The Doc
TTITLE2=Just Remember
TTITLE3=Watch My Lips
TTITLE4=Cowboy Reggae
TTITLE5=Monty Shows Off Infidel
TTITLE6=Maureen And Kenny On The Road
TTITLE7=Survival Camp
TTITLE8=Infidel's And Inspiration
TTITLE9=Isometrics
TTITLE10=Monty Stole The Horse
TTITLE11=It's A Sham/Workin' Man
TTITLE12=The Sheriff's A Preacher
TTITLE13=Lizard Boots, Size 10 D
TTITLE14=Good Morning
TTITLE15=Maureen's Monologue
TTITLE16=Sceered Fitless
TTITLE17=Monty Hides Infidel
TTITLE18=Have A Turkish Fig
TTITLE19=Chasin' Monty
TTITLE20=Kenny's In The Vat
TTITLE21=Happy Now And Forever
TTITLE22=Cowboy Reggae (End Credits)
EXTD=
EXTT0=
EXTT1=
EXTT2=
EXTT3=
EXTT4=
EXTT5=
EXTT6=
EXTT7=
EXTT8=
EXTT9=
EXTT10=
EXTT11=
EXTT12=
EXTT13=
EXTT14=
EXTT15=
EXTT16=
EXTT17=
EXTT18=
EXTT19=
EXTT20=
EXTT21=
EXTT22=
PLAYORDER=
